<svg width="17" height="21" viewBox="0 0 17 21" fill="none" xmlns="http://www.w3.org/2000/svg">
<path d="M11.44 3.19C11.8181 2.75428 12.1063 2.24817 12.2882 1.70074C12.4701 1.1533 12.5421 0.575328 12.5 0C11.3394 0.093687 10.262 0.639556 9.5 1.52C9.1351 1.94198 8.85858 2.43288 8.68681 2.96364C8.51504 3.49441 8.45152 4.05424 8.5 4.61C9.06615 4.61472 9.62579 4.4891 10.1356 4.24286C10.6454 3.99662 11.0917 3.63637 11.44 3.19ZM13.96 10.63C13.9667 9.86374 14.1685 9.11182 14.5465 8.4452C14.9244 7.77859 15.4659 7.21926 16.12 6.82C15.7072 6.22524 15.1615 5.73483 14.5262 5.38767C13.8909 5.04052 13.1835 4.84615 12.46 4.82C10.9 4.66 9.46 5.73 8.63 5.73C7.8 5.73 6.63 4.84 5.33 4.86C4.48013 4.888 3.65202 5.13578 2.92645 5.57919C2.20088 6.02259 1.60261 6.64648 1.19 7.39C-0.569997 10.45 0.740003 15 2.5 17.47C3.3 18.68 4.3 20.05 5.62 20C6.94 19.95 7.37 19.18 8.9 19.18C10.43 19.18 10.9 20 12.2 19.97C13.5 19.94 14.42 18.73 15.26 17.52C15.855 16.6415 16.3199 15.6816 16.64 14.67C15.8475 14.332 15.1713 13.7693 14.695 13.0513C14.2188 12.3333 13.9632 11.4916 13.96 10.63Z" fill="white"/>
</svg>
